<svg width="23.999999999999996" height="23.999999999999996" xmlns="http://www.w3.org/2000/svg">

 <g>
  <title>background</title>
  <rect fill="none" id="canvas_background" height="402" width="582" y="-1" x="-1"/>
 </g>
 <g>
  <title>Layer 1</title>
  <path id="svg_2" fill="#bdc3c7" d="m5,3.999976c-1.1046,0 -2,0.9 -2,2l0,14c0,1.1 0.8954,2 2,2l6,0l2,0l6,0c1.105,0 2,-0.9 2,-2l0,-14c0,-1.1 -0.895,-2 -2,-2l-6,0l-2,0l-6,0z"/>
  <path id="svg_3" fill="#ecf0f1" d="m5,3c-1.1046,0 -2,0.8954 -2,2l0,14c0,1.105 0.8954,2 2,2l6,0l2,0l6,0c1.105,0 2,-0.895 2,-2l0,-14c0,-1.1046 -0.895,-2 -2,-2l-6,0l-2,0l-6,0z"/>
  <path id="svg_4" fill="#e74c3c" d="m5,3c-1.1046,0 -2,0.8954 -2,2l0,3l0,1l18,0l0,-1l0,-3c0,-1.1046 -0.895,-2 -2,-2l-6,0l-2,0l-6,0z"/>
  <path id="svg_5" fill="#c0392b" d="m7.5,5.5a1.5,1.5 0 1 1 -3,0a1.5,1.5 0 1 1 3,0z"/>
  <path id="svg_6" fill="#bdc3c7" d="m6,1c-0.5523,0 -1,0.4477 -1,1l0,3c0,0.5523 0.4477,1 1,1s1,-0.4477 1,-1l0,-3c0,-0.5523 -0.4477,-1 -1,-1z"/>
  <path id="svg_7" fill="#c0392b" d="m19.5,5.5a1.5,1.5 0 1 1 -3,0a1.5,1.5 0 1 1 3,0z"/>
  <path id="svg_9" d="m18,0.999976c-0.552,0 -1,0.4 -1,1l0,3c0,0.5 0.448,1 1,1s1,-0.5 1,-1l0,-3c0,-0.6 -0.448,-1 -1,-1z"/>
  <path id="svg_10" d="m5,10.999976l0,2l2,0l0,-2l-2,0zm3,0l0,2l2,0l0,-2l-2,0zm3,0l0,2l2,0l0,-2l-2,0zm3,0l0,2l2,0l0,-2l-2,0zm3,0l0,2l2,0l0,-2l-2,0z"/>
  <path id="svg_11" d="m5,13.999976l0,2l2,0l0,-2l-2,0zm3,0l0,2l2,0l0,-2l-2,0zm3,0l0,2l2,0l0,-2l-2,0zm3,0l0,2l2,0l0,-2l-2,0zm3,0l0,2l2,0l0,-2l-2,0z"/>
  <path id="svg_12" d="m5,16.999976l0,2l2,0l0,-2l-2,0zm3,0l0,2l2,0l0,-2l-2,0zm3,0l0,2l2,0l0,-2l-2,0zm3,0l0,2l2,0l0,-2l-2,0zm3,0l0,2l2,0l0,-2l-2,0z"/>
  <path id="svg_13" fill="#34495e" d="m23.4496,18.548356a4.94946,4.94946 0 1 1 -9.89892,0a4.94946,4.94946 0 1 1 9.89892,0z"/>
  <path id="svg_14" fill="#bdc3c7" d="m18.5,14c-0.276,0 -0.5,0.224 -0.5,0.5l0,0.5l0,3l0,0.5c0,0.276 0.224,0.5 0.5,0.5l0.5,0l2,0l0.5,0c0.276,0 0.5,-0.224 0.5,-0.5s-0.224,-0.5 -0.5,-0.5l-0.5,0l-2,0l0,-3l0,-0.5c0,-0.276 -0.224,-0.5 -0.5,-0.5z"/>
  <path id="svg_15" fill="#7f8c8d" d="m18.5,12.999976c-3.038,0 -5.5,2.4 -5.5,5.5c0,3 2.462,5.5 5.5,5.5s5.5,-2.5 5.5,-5.5c0,-3.1 -2.462,-5.5 -5.5,-5.5zm0,1c2.485,0 4.5,2 4.5,4.5c0,2.4 -2.015,4.5 -4.5,4.5s-4.5,-2.1 -4.5,-4.5c0,-2.5 2.015,-4.5 4.5,-4.5z"/>
  <path id="svg_16" fill="#95a5a6" d="m19,18.5c0,0.276 -0.224,0.5 -0.5,0.5s-0.5,-0.224 -0.5,-0.5s0.224,-0.5 0.5,-0.5s0.5,0.224 0.5,0.5z"/>
 </g>
</svg>